<svg id="Layer_1" data-name="Layer 1" xmlns="http://www.w3.org/2000/svg" viewBox="0 0 700 500"><defs><style>.cls-1{fill:#008cff;}.cls-2{fill:#0cbfe8;}</style></defs><title>RIF_Logo_Phase1_RGB_NoTagline</title><path d="M361.94,393.47V228.82l33.79-4.16,5.23,25.8q16.58-26.57,48.07-26.57a75.85,75.85,0,0,1,10.76.62l-0.62,33.64a85.53,85.53,0,0,0-12.75-.92q-22.27,0-33.25,11.82t-11,32.88v91.54H361.94Z"/><path class="cls-1" d="M132.4,200.46V43.76S81.7,69,81.7,122.73s50.7,77.73,50.7,77.73"/><path class="cls-2" d="M132.4,43.76s50.7,25.26,50.7,79-50.7,77.73-50.7,77.73V43.76Z"/><path class="cls-1" d="M250.75,274.19l69.67-39.62s-24.05-16.15-47.93-2.57-21.74,42.19-21.74,42.19"/><path class="cls-2" d="M320.41,234.57s1.59,28.93-22.29,42.5-47.38-2.89-47.38-2.89Z"/><path d="M323.75,228.26c-1.23-.66-30.61-16.16-55.42-1.82-19.89,11.49-23.86,34.55-24.65,44.14l-9.18,5.29a25.26,25.26,0,0,0-35.34-.15l-42.07-24.29a25.44,25.44,0,0,0-17.65-30.54v-15c12.27-7.88,51.2-36.49,51.2-82.07,0-52.73-52.3-85.7-54.52-87.05l-3.71-2.3-3.68,2.3c-2.25,1.35-54.55,34.32-54.55,87.05,0,45.58,38.92,74.19,51.2,82.07v15a25.41,25.41,0,0,0-17.65,30.54L65.65,275.73a25.15,25.15,0,0,0-17.59-7.14A25.42,25.42,0,0,0,41,318.43v50.49a25.42,25.42,0,0,0,7.06,49.85,25.17,25.17,0,0,0,18.77-8.34L107.72,434a25,25,0,0,0-.75,6.09,25.42,25.42,0,0,0,50.85,0,25,25,0,0,0-.74-6.09L198,410.43a25.18,25.18,0,0,0,18.77,8.34,25.42,25.42,0,0,0,7.06-49.85V318.43A25.48,25.48,0,0,0,242.17,294a26.51,26.51,0,0,0-.69-5.93l9.16-5.27c5.37,2.53,15.93,6.68,28,6.68a44.82,44.82,0,0,0,22.74-5.91c24.81-14.32,26.09-47.52,26.14-48.9l0.13-4.35Zm-99.94,74.65a11.35,11.35,0,0,1-7.06,2.46,11,11,0,0,1-4-.74,10.47,10.47,0,0,1-3-1.69,11.24,11.24,0,0,1-4.23-7.29,12.51,12.51,0,0,1-.12-1.64,8.79,8.79,0,0,1,.1-1.43A11.35,11.35,0,0,1,228.1,294a10.89,10.89,0,0,1-.16,1.87,11.43,11.43,0,0,1-4.14,7m4.3,90.43a11.36,11.36,0,0,1-11.36,11.36,11.16,11.16,0,0,1-5.94-1.69,11.34,11.34,0,0,1-5.42-9.67,1.55,1.55,0,0,1,0-.33v0a10.7,10.7,0,0,1,.66-3.48,11.26,11.26,0,0,1,3.66-5.09,10.81,10.81,0,0,1,5.06-2.25,9.54,9.54,0,0,1,1.95-.18,11.35,11.35,0,0,1,11.36,11.36m-18.36-24.42a25.11,25.11,0,0,0-9.29,5L157.33,349v0a26.94,26.94,0,0,0,.49-5,25,25,0,0,0-1-7.09l42.46-24.47a25.28,25.28,0,0,0,10.49,6v50.49Zm-77.34,82.5a11.37,11.37,0,0,1-11.23-9.62,12.52,12.52,0,0,1-.13-1.71,11.36,11.36,0,0,1,22.71,0,12.52,12.52,0,0,1-.13,1.71,11.36,11.36,0,0,1-11.23,9.62M107.49,349.08L64.37,373.91a25.31,25.31,0,0,0-9.31-5V318.43a25.13,25.13,0,0,0,10.59-6.14L108,336.77A24.56,24.56,0,0,0,107,344a25.81,25.81,0,0,0,.51,5.08v0ZM59.41,393.34A11.33,11.33,0,0,1,54,403a11.12,11.12,0,0,1-5.93,1.69,11.36,11.36,0,1,1,0-22.71,10,10,0,0,1,2,.18,11.3,11.3,0,0,1,8.69,7.34,10.53,10.53,0,0,1,.66,3.5,1.25,1.25,0,0,1,0,.33M36.7,294a11.36,11.36,0,0,1,22.71,0,11.57,11.57,0,0,1-.13,1.64,11.23,11.23,0,0,1-4.22,7.29,10.52,10.52,0,0,1-2.82,1.61,11,11,0,0,1-4.19.82A11.35,11.35,0,0,1,36.7,294m88.67-57.62a11.34,11.34,0,0,1,18.26,7.27,11.91,11.91,0,0,1,.13,1.66,11.3,11.3,0,0,1-4.32,8.9,10.75,10.75,0,0,1-2.84,1.61,11.17,11.17,0,0,1-8.39,0,10.65,10.65,0,0,1-2.84-1.61,11.29,11.29,0,0,1-4.33-8.9,11.91,11.91,0,0,1,.13-1.66,11.38,11.38,0,0,1,4.2-7.27m18.36,108a11.18,11.18,0,0,1-4.3,8.46,13.84,13.84,0,0,1-1.64,1.08,11.32,11.32,0,0,1-10.69,0,10.62,10.62,0,0,1-1.74-1.1,11.25,11.25,0,0,1-4.3-8.59,1.25,1.25,0,0,1,0-.33,10.19,10.19,0,0,1,.41-2.94,11.24,11.24,0,0,1,3.91-6,11.77,11.77,0,0,1,4.21-2.07,11.41,11.41,0,0,1,2.82-.36,10.35,10.35,0,0,1,2.94.41,11.16,11.16,0,0,1,8,7.88,11,11,0,0,1,.44,3.07,2.45,2.45,0,0,1,0,.43v0Zm48.34-56.55a25.58,25.58,0,0,0,.05,12.43L149.28,325a24.94,24.94,0,0,0-9.85-5.45V269.72A25.15,25.15,0,0,0,150,263.6Zm-103.84-164c0-37.37,32.94-64.42,44.17-72.55,11.26,8.11,44.17,35.06,44.17,72.55,0,31.28-23.14,53.94-37.13,64.78V129.57a7,7,0,1,0-14.07,0v59.1c-14-10.82-37.14-33.43-37.14-64.81M114.78,263.6a25.17,25.17,0,0,0,10.59,6.11v49.82a25,25,0,0,0-9.75,5.37L72.74,300.15a25.82,25.82,0,0,0,0-12.28ZM73.07,397.79a23.12,23.12,0,0,0,.41-4.45,24.92,24.92,0,0,0-1.23-7.75L114,361.51a25.39,25.39,0,0,0,11.33,6.88v47.29a25.34,25.34,0,0,0-10.62,6.19Zm77,24.07a25.32,25.32,0,0,0-10.61-6.19V368.39a25.09,25.09,0,0,0,11.35-6.91l41.77,24.09a25.25,25.25,0,0,0-1.23,7.78,23.12,23.12,0,0,0,.41,4.45ZM294.29,271.4c-9.33,5.37-19.87,4.42-27.83,2.27l14.07-8.11a7,7,0,1,0-7-12.17l-14,8.06c2.12-7.94,6.57-17.49,15.85-22.84,13.43-7.75,30-2.84,37.57.18-1.15,8.08-5.11,24.81-18.64,32.61"/><path d="M488.8,186.81q0-20.61,23-20.61t23,20.61q0,9.83-5.74,15.29t-17.23,5.46Q488.79,207.57,488.8,186.81Zm44,206.65h-42.2V226.8h42.2V393.47Z"/><path d="M662.56,258.48H626v135h-42.2v-135H560.6V238.14l23.24-11.34V215.45q0-26.42,13-38.6t41.64-12.17q21.86,0,38.88,6.5l-10.79,31a78.69,78.69,0,0,0-23.52-4q-9,0-13,5.33t-4,13.63v9.68h36.52v31.68Z"/></svg>