<?xml version="1.0" encoding="UTF-8" standalone="no"?>
<svg
   xmlns:dc="http://purl.org/dc/elements/1.1/"
   xmlns:cc="http://creativecommons.org/ns#"
   xmlns:rdf="http://www.w3.org/1999/02/22-rdf-syntax-ns#"
   xmlns:svg="http://www.w3.org/2000/svg"
   xmlns="http://www.w3.org/2000/svg"
   viewBox="0 0 1122.52 408"
   height="408"
   width="1122.52"
   xml:space="preserve"
   id="svg2"
   version="1.1"><metadata
     id="metadata8"><rdf:RDF><cc:Work
         rdf:about=""><dc:format>image/svg+xml</dc:format><dc:type
           rdf:resource="http://purl.org/dc/dcmitype/StillImage" /></cc:Work></rdf:RDF></metadata><defs
     id="defs6"><clipPath
       id="clipPath18"
       clipPathUnits="userSpaceOnUse"><path
         id="path16"
         d="M 0,306 H 841.89 V 0 H 0 Z" /></clipPath></defs><g
     transform="matrix(1.3333333,0,0,-1.3333333,0,408)"
     id="g10"><g
       id="g12"><g
         clip-path="url(#clipPath18)"
         id="g14"><g
           transform="translate(442.2227,130.0186)"
           id="g20"><path
             id="path22"
             style="fill:#00d27d;fill-opacity:1;fill-rule:nonzero;stroke:none"
             d="m 0,0 h -9.872 v 120.174 c 0,3.628 2.944,6.572 6.572,6.572 H 0 Z" /></g><g
           transform="translate(537.1875,175.0806)"
           id="g24"><path
             id="path26"
             style="fill:#00d27d;fill-opacity:1;fill-rule:nonzero;stroke:none"
             d="m 0,0 c 0,22.8 -16.336,39.489 -37.701,39.489 -21.904,0 -37.696,-16.51 -37.696,-39.489 0,-22.804 15.792,-39.498 37.696,-39.498 C -16.336,-39.498 0,-22.804 0,0 m 0,45.239 h 3.302 c 3.628,0 6.575,-2.94 6.575,-6.574 V -45.062 H 0 v 19.386 c -7.004,-13.998 -21.187,-22.976 -38.594,-22.976 -27.112,0 -46.677,20.465 -46.677,48.652 0,28.361 19.565,48.829 46.677,48.829 17.407,0 31.59,-8.975 38.594,-23.16 z" /></g><g
           transform="translate(610.4238,214.2139)"
           id="g28"><path
             id="path30"
             style="fill:#00d27d;fill-opacity:1;fill-rule:nonzero;stroke:none"
             d="m 0,0 c -21.901,0 -37.696,-16.515 -37.696,-39.133 0,-22.621 15.795,-38.961 37.696,-38.961 21.721,0 37.701,16.34 37.701,38.961 C 37.701,-16.515 21.907,0 0,0 m -37.338,42.551 v -55.479 c 6.998,13.83 21.002,22.623 38.235,22.623 27.111,0 46.678,-20.641 46.678,-48.828 0,-28.187 -19.741,-48.652 -46.678,-48.652 -17.41,0 -31.411,8.977 -38.593,22.797 v -19.207 h -9.698 V 35.979 c 0,3.627 2.945,6.572 6.575,6.572 z" /></g><g
           transform="translate(662.3057,159.2798)"
           id="g32"><path
             id="path34"
             style="fill:#00d27d;fill-opacity:1;fill-rule:nonzero;stroke:none"
             d="m 0,0 h 9.697 c 0,-13.825 12.207,-23.697 29.077,-23.697 15.441,0 26.569,8.077 26.569,18.489 0,25.138 -63.009,8.979 -63.009,42.911 0,15.434 14.546,26.926 33.751,26.926 21.367,0 36.981,-12.748 36.981,-30.342 l -9.878,0.182 c 0,12.209 -11.484,20.821 -27.103,20.821 -13.46,0 -24.058,-7.536 -24.058,-17.41 0,-24.418 63.009,-9.333 63.009,-42.372 0,-16.329 -15.25,-28.359 -36.262,-28.359 C 16.159,-32.851 0,-19.029 0,0" /></g><g
           transform="translate(136.3809,129.9736)"
           id="g36"><path
             id="path38"
             style="fill:#00d27d;fill-opacity:1;fill-rule:nonzero;stroke:none"
             d="m 0,0 h -29.803 v 109.124 c 0,9.483 7.687,17.172 17.17,17.172 l 12.633,0 z" /></g><g
           transform="translate(354.3716,151.9702)"
           id="g40"><path
             id="path42"
             style="fill:#00d27d;fill-opacity:1;fill-rule:nonzero;stroke:none"
             d="m 0,0 28.338,92.06 c 2.24,7.272 8.96,12.24 16.571,12.24 H 63.148 L 22.708,-21.997 H -22.698 L -63.324,104.3 h 18.383 c 7.523,0 14.173,-4.909 16.401,-12.098 z" /></g><g
           transform="translate(221.876,151.0845)"
           id="g44"><path
             id="path46"
             style="fill:#00d27d;fill-opacity:1;fill-rule:nonzero;stroke:none"
             d="m 0,0 c -23.605,0.165 -40.099,17.365 -40.099,42.028 0,7.75 1.642,14.793 4.596,20.774 0,0 0,0.031 0.035,0.063 0.031,0.064 0.094,0.227 0.224,0.417 0.033,0.128 0.097,0.262 0.193,0.386 0.125,0.257 0.321,0.611 0.547,1.002 0.127,0.193 0.223,0.384 0.353,0.607 0.191,0.29 0.381,0.608 0.61,0.933 3.314,4.952 10.935,13.86 24.375,16.141 l 0.674,0.096 c 0.163,0 0.389,0.035 0.615,0.069 4.21,0.315 17.394,0.546 23.379,-9.357 0.059,-0.136 0.123,-0.226 0.191,-0.358 0.292,-0.481 0.546,-0.994 0.772,-1.512 0.125,-0.255 0.224,-0.509 0.351,-0.74 6.817,-15.367 -0.419,-37.105 -9.808,-46.079 0,0 28.203,15.985 27.108,40.841 3.861,-6.528 5.985,-14.44 5.985,-23.283 C 40.101,17.365 23.603,0 0,0 m 0,109.621 c -41.515,0 -69.878,-27.685 -69.878,-67.593 0,-40.063 28.363,-67.56 69.878,-67.56 41.321,0 69.875,27.497 69.875,67.56 0,39.908 -28.554,67.593 -69.875,67.593" /></g><g
           transform="translate(108.9478,75.7881)"
           id="g48"><path
             id="path50"
             style="fill:#00d27d;fill-opacity:1;fill-rule:nonzero;stroke:none"
             d="m 0,0 v -13.335 h 10.691 c 5.24,0 9.004,2.864 9.004,6.716 C 19.695,-2.752 15.931,0 10.691,0 Z M 0,16.156 V 3.921 h 10.852 c 4.556,0 7.782,2.493 7.782,6.091 0,3.544 -3.226,6.144 -7.782,6.144 z m -4.399,-33.407 v 37.313 h 15.784 c 6.717,0 11.644,-4.233 11.644,-10.05 0,-3.814 -2.488,-7.093 -5.988,-7.997 4.135,-0.953 7.044,-4.596 7.044,-8.839 0,-6.032 -5.401,-10.427 -12.813,-10.427 z" /></g><g
           transform="translate(140.4238,69.2861)"
           id="g52"><path
             id="path54"
             style="fill:#00d27d;fill-opacity:1;fill-rule:nonzero;stroke:none"
             d="M 0,0 V 15.98 H 4.024 V 0 c 0,-4.712 2.708,-8.158 7.469,-8.158 4.653,0 8.677,3.602 8.677,8.471 V 15.98 h 4.023 V -10.749 H 20.17 v 3.76 C 18.375,-9.947 14.714,-11.81 11.019,-11.81 4.185,-11.81 0,-6.833 0,0" /></g><path
           id="path56"
           style="fill:#00d27d;fill-opacity:1;fill-rule:nonzero;stroke:none"
           d="m 173.602,85.267 h 4.023 V 58.538 h -4.023 z m 2.004,10.382 c 1.589,0 2.767,-1.108 2.767,-2.697 0,-1.595 -1.178,-2.753 -2.767,-2.753 -1.627,0 -2.742,1.158 -2.742,2.753 0,1.589 1.115,2.697 2.742,2.697" /><path
           id="path58"
           style="fill:#00d27d;fill-opacity:1;fill-rule:nonzero;stroke:none"
           d="m 186.566,97.449 h 4.082 V 58.537 h -4.082 z" /><g
           transform="translate(211.707,61.3916)"
           id="g60"><path
             id="path62"
             style="fill:#00d27d;fill-opacity:1;fill-rule:nonzero;stroke:none"
             d="m 0,0 c 5.93,0 10.217,4.453 10.217,10.486 0,6.081 -4.287,10.53 -10.217,10.53 -5.925,0 -10.216,-4.449 -10.216,-10.53 C -10.216,4.347 -5.875,0 0,0 m 10.114,36.058 h 4.023 V -2.854 h -3.92 v 4.599 c -2.273,-3.495 -6.091,-5.66 -10.642,-5.66 -7.983,0 -13.815,6.091 -13.815,14.401 0,8.359 5.832,14.45 13.815,14.45 4.502,0 8.266,-2.112 10.539,-5.558 z" /></g><path
           id="path64"
           style="fill:#00d27d;fill-opacity:1;fill-rule:nonzero;stroke:none"
           d="m 234.824,85.267 h 4.014 V 58.538 h -4.014 z m 2.014,10.382 c 1.579,0 2.753,-1.108 2.753,-2.697 0,-1.595 -1.174,-2.753 -2.753,-2.753 -1.642,0 -2.762,1.158 -2.762,2.753 0,1.589 1.12,2.697 2.762,2.697" /><g
           transform="translate(272.0352,74.5273)"
           id="g66"><path
             id="path68"
             style="fill:#00d27d;fill-opacity:1;fill-rule:nonzero;stroke:none"
             d="M 0,0 V -15.99 H -4.023 V 0 c 0,4.707 -2.699,8.095 -7.406,8.095 -4.669,0 -8.741,-3.544 -8.741,-8.477 V -15.99 h -4.027 v 26.729 h 4.027 V 6.98 c 1.858,2.973 5.451,4.82 9.166,4.82 C -4.185,11.8 0,6.824 0,0" /></g><g
           transform="translate(302.8271,71.8779)"
           id="g70"><path
             id="path72"
             style="fill:#00d27d;fill-opacity:1;fill-rule:nonzero;stroke:none"
             d="m 0,0 c 0,6.247 -4.287,10.744 -10.217,10.744 -5.929,0 -10.221,-4.497 -10.221,-10.744 0,-6.033 4.35,-10.433 10.221,-10.433 C -4.287,-10.433 0,-6.033 0,0 m -19.324,-16.366 c 1.173,-3.867 4.977,-6.561 9.376,-6.561 5.715,0 9.845,3.696 9.845,10.011 v 4.225 c -2.331,-3.378 -6.037,-5.388 -10.529,-5.388 -7.998,0 -13.825,5.93 -13.825,14.079 0,8.311 5.827,14.342 13.825,14.342 4.605,0 8.246,-2.063 10.529,-5.402 v 4.449 H 3.92 v -26.305 c 0,-8.584 -5.777,-13.667 -13.711,-13.667 -6.458,0 -11.909,3.812 -13.39,9.268 z" /></g><g
           transform="translate(342.3501,58.5371)"
           id="g74"><path
             id="path76"
             style="fill:#00d27d;fill-opacity:1;fill-rule:nonzero;stroke:none"
             d="m 0,0 -13.609,37.328 h 4.658 L 3.29,3.329 15.452,37.328 h 4.669 L 6.565,0 Z" /></g><g
           transform="translate(388.4971,71.8779)"
           id="g78"><path
             id="path80"
             style="fill:#00d27d;fill-opacity:1;fill-rule:nonzero;stroke:none"
             d="m 0,0 c 0,6.247 -4.341,10.744 -10.217,10.744 -5.925,0 -10.212,-4.497 -10.212,-10.744 0,-6.199 4.287,-10.75 10.212,-10.75 C -4.341,-10.75 0,-6.199 0,0 m 0.059,13.389 h 4.018 v -26.73 H 0.059 v 4.708 c -2.284,-3.545 -6.141,-5.768 -10.75,-5.768 -7.993,0 -13.766,6.095 -13.766,14.401 0,8.358 5.773,14.449 13.766,14.449 4.609,0 8.466,-2.223 10.75,-5.816 z" /></g><path
           id="path82"
           style="fill:#00d27d;fill-opacity:1;fill-rule:nonzero;stroke:none"
           d="m 400.869,97.449 h 4.083 V 58.537 h -4.083 z" /><g
           transform="translate(412.7236,69.2861)"
           id="g84"><path
             id="path86"
             style="fill:#00d27d;fill-opacity:1;fill-rule:nonzero;stroke:none"
             d="M 0,0 V 15.98 H 4.014 V 0 c 0,-4.712 2.703,-8.158 7.469,-8.158 4.649,0 8.682,3.602 8.682,8.471 V 15.98 h 4.019 v -26.729 h -4.019 v 3.76 C 18.371,-9.947 14.715,-11.81 11.014,-11.81 4.175,-11.81 0,-6.833 0,0" /></g><g
           transform="translate(467.7627,74.0479)"
           id="g88"><path
             id="path90"
             style="fill:#00d27d;fill-opacity:1;fill-rule:nonzero;stroke:none"
             d="m 0,0 c -0.743,5.079 -4.658,8.574 -9.948,8.574 -5.197,0 -9.058,-3.495 -9.801,-8.525 z m -0.631,-7.572 3.598,-1.324 c -1.696,-4.449 -6.986,-7.675 -12.553,-7.675 -8.364,0 -14.396,6.188 -14.396,14.714 0,8.154 5.92,14.136 14.191,14.136 8.144,0 14.024,-5.982 14.024,-14.185 0,-0.48 0,-1.017 -0.053,-1.589 l -24.041,0.054 c 0.639,-5.612 4.716,-9.479 10.015,-9.479 4.024,0 7.885,2.332 9.215,5.348" /></g><g
           transform="translate(496.0029,58.5371)"
           id="g92"><path
             id="path94"
             style="fill:#00d27d;fill-opacity:1;fill-rule:nonzero;stroke:none"
             d="M 0,0 V 37.328 H 5.983 L 25.103,5.396 v 31.932 h 4.433 V 0 H 23.567 L 4.39,31.926 V 0 Z" /></g><g
           transform="translate(557.1963,74.0479)"
           id="g96"><path
             id="path98"
             style="fill:#00d27d;fill-opacity:1;fill-rule:nonzero;stroke:none"
             d="m 0,0 c -0.753,5.079 -4.669,8.574 -9.968,8.574 -5.191,0 -9.048,-3.495 -9.786,-8.525 z m -0.646,-7.572 3.599,-1.324 c -1.686,-4.449 -6.991,-7.675 -12.544,-7.675 -8.364,0 -14.396,6.188 -14.396,14.714 0,8.154 5.929,14.136 14.185,14.136 8.15,0 14.026,-5.982 14.026,-14.185 0,-0.48 0,-1.017 -0.054,-1.589 l -24.041,0.054 c 0.64,-5.612 4.712,-9.479 10.016,-9.479 4.023,0 7.89,2.332 9.209,5.348" /></g><g
           transform="translate(570.5615,81.9385)"
           id="g100"><path
             id="path102"
             style="fill:#00d27d;fill-opacity:1;fill-rule:nonzero;stroke:none"
             d="M 0,0 H -4.39 V 3.328 H 0.156 L 0.743,9.586 H 4.027 V 3.328 h 6.938 V 0 H 4.027 v -16.621 c 0,-2.601 1.589,-4.351 4.126,-4.4 0.846,0 2.23,0.21 3.232,0.528 v -3.334 c -1.223,-0.371 -2.918,-0.635 -4.234,-0.635 -4.394,0 -7.151,3.069 -7.151,7.685 z" /></g><g
           transform="translate(607.875,80.5596)"
           id="g104"><path
             id="path106"
             style="fill:#00d27d;fill-opacity:1;fill-rule:nonzero;stroke:none"
             d="m 0,0 -6.409,-22.022 h -5.499 l -9.059,26.734 h 4.238 l 7.622,-22.766 6.726,22.766 H 2.331 L 9.272,-18.054 16.786,4.712 H 21.02 L 11.912,-22.022 H 6.403 Z" /></g><g
           transform="translate(648.0332,82.6221)"
           id="g108"><path
             id="path110"
             style="fill:#00d27d;fill-opacity:1;fill-rule:nonzero;stroke:none"
             d="m 0,0 c -5.925,0 -10.217,-4.507 -10.217,-10.744 0,-6.199 4.292,-10.75 10.217,-10.75 5.93,0 10.217,4.551 10.217,10.75 C 10.217,-4.507 5.93,0 0,0 m 0,-25.146 c -8.359,0 -14.24,5.984 -14.24,14.402 0,8.467 5.881,14.449 14.24,14.449 8.369,0 14.294,-5.982 14.294,-14.449 0,-8.418 -5.925,-14.402 -14.294,-14.402" /></g><g
           transform="translate(684.0752,85.4824)"
           id="g112"><path
             id="path114"
             style="fill:#00d27d;fill-opacity:1;fill-rule:nonzero;stroke:none"
             d="m 0,0 v -3.711 c -1.379,0.636 -2.918,0.851 -3.979,0.851 -4.175,0 -6.932,-3.764 -6.932,-9.103 v -14.982 h -4.024 v 26.734 h 3.916 v -3.705 c 1.584,2.914 4.131,4.653 7.412,4.653 C -2.498,0.737 -1.222,0.474 0,0" /></g><g
           transform="translate(694.0137,58.5371)"
           id="g116"><path
             id="path118"
             style="fill:#00d27d;fill-opacity:1;fill-rule:nonzero;stroke:none"
             d="M 0,0 H -4.019 V 38.912 H 0 V 15.932 L 11.644,26.729 H 17.1 L 3.71,14.294 17.628,0 H 12.177 L 0,12.646 Z" /></g><g
           transform="translate(714.3789,67.4775)"
           id="g120"><path
             id="path122"
             style="fill:#00d27d;fill-opacity:1;fill-rule:nonzero;stroke:none"
             d="m 0,0 h 3.92 c 0,-3.705 3.334,-6.35 7.895,-6.35 4.125,0 7.093,2.009 7.093,4.717 -0.054,6.722 -18.381,1.79 -18.381,12.378 0,4.663 4.503,8.105 10.272,8.105 6.569,0 11.443,-3.803 11.443,-9.043 l -3.97,0.048 c 0,3.07 -3.187,5.29 -7.572,5.29 -3.446,0 -6.252,-1.907 -6.252,-4.507 0,-6.561 18.381,-2.16 18.381,-12.006 0,-4.928 -4.615,-8.633 -11.014,-8.633 C 4.918,-10.001 -0.054,-5.768 0,0" /></g><g
           transform="translate(442.2227,130.0186)"
           id="g124"><path
             id="path126"
             style="fill:#00d27d;fill-opacity:1;fill-rule:nonzero;stroke:none"
             d="m 0,0 h -9.872 v 120.174 c 0,3.628 2.944,6.572 6.572,6.572 H 0 Z" /></g><g
           transform="translate(537.1875,175.0806)"
           id="g128"><path
             id="path130"
             style="fill:#00d27d;fill-opacity:1;fill-rule:nonzero;stroke:none"
             d="m 0,0 c 0,22.8 -16.336,39.489 -37.701,39.489 -21.904,0 -37.696,-16.51 -37.696,-39.489 0,-22.804 15.792,-39.498 37.696,-39.498 C -16.336,-39.498 0,-22.804 0,0 m 0,45.239 h 3.302 c 3.628,0 6.575,-2.94 6.575,-6.574 V -45.062 H 0 v 19.386 c -7.004,-13.998 -21.187,-22.976 -38.594,-22.976 -27.112,0 -46.677,20.465 -46.677,48.652 0,28.361 19.565,48.829 46.677,48.829 17.407,0 31.59,-8.975 38.594,-23.16 z" /></g><g
           transform="translate(610.4238,214.2139)"
           id="g132"><path
             id="path134"
             style="fill:#00d27d;fill-opacity:1;fill-rule:nonzero;stroke:none"
             d="m 0,0 c -21.901,0 -37.696,-16.515 -37.696,-39.133 0,-22.621 15.795,-38.961 37.696,-38.961 21.721,0 37.701,16.34 37.701,38.961 C 37.701,-16.515 21.907,0 0,0 m -37.338,42.551 v -55.479 c 6.998,13.83 21.002,22.623 38.235,22.623 27.111,0 46.678,-20.641 46.678,-48.828 0,-28.187 -19.741,-48.652 -46.678,-48.652 -17.41,0 -31.411,8.977 -38.593,22.797 v -19.207 h -9.698 V 35.979 c 0,3.627 2.945,6.572 6.575,6.572 z" /></g><g
           transform="translate(662.3057,159.2798)"
           id="g136"><path
             id="path138"
             style="fill:#00d27d;fill-opacity:1;fill-rule:nonzero;stroke:none"
             d="m 0,0 h 9.697 c 0,-13.825 12.207,-23.697 29.077,-23.697 15.441,0 26.569,8.077 26.569,18.489 0,25.138 -63.009,8.979 -63.009,42.911 0,15.434 14.546,26.926 33.751,26.926 21.367,0 36.981,-12.748 36.981,-30.342 l -9.878,0.182 c 0,12.209 -11.484,20.821 -27.103,20.821 -13.46,0 -24.058,-7.536 -24.058,-17.41 0,-24.418 63.009,-9.333 63.009,-42.372 0,-16.329 -15.25,-28.359 -36.262,-28.359 C 16.159,-32.851 0,-19.029 0,0" /></g><g
           transform="translate(136.3809,129.9736)"
           id="g140"><path
             id="path142"
             style="fill:#00d27d;fill-opacity:1;fill-rule:nonzero;stroke:none"
             d="m 0,0 h -29.803 v 109.124 c 0,9.483 7.687,17.172 17.17,17.172 l 12.633,0 z" /></g><g
           transform="translate(354.3716,151.9702)"
           id="g144"><path
             id="path146"
             style="fill:#00d27d;fill-opacity:1;fill-rule:nonzero;stroke:none"
             d="m 0,0 28.338,92.06 c 2.24,7.272 8.96,12.24 16.571,12.24 H 63.148 L 22.708,-21.997 H -22.698 L -63.324,104.3 h 18.383 c 7.523,0 14.173,-4.909 16.401,-12.098 z" /></g><g
           transform="translate(221.876,151.0845)"
           id="g148"><path
             id="path150"
             style="fill:#00d27d;fill-opacity:1;fill-rule:nonzero;stroke:none"
             d="m 0,0 c -23.605,0.165 -40.099,17.365 -40.099,42.028 0,7.75 1.642,14.793 4.596,20.774 0,0 0,0.031 0.035,0.063 0.031,0.064 0.094,0.227 0.224,0.417 0.033,0.128 0.097,0.262 0.193,0.386 0.125,0.257 0.321,0.611 0.547,1.002 0.127,0.193 0.223,0.384 0.353,0.607 0.191,0.29 0.381,0.608 0.61,0.933 3.314,4.952 10.935,13.86 24.375,16.141 l 0.674,0.096 c 0.163,0 0.389,0.035 0.615,0.069 4.21,0.315 17.394,0.546 23.379,-9.357 0.059,-0.136 0.123,-0.226 0.191,-0.358 0.292,-0.481 0.546,-0.994 0.772,-1.512 0.125,-0.255 0.224,-0.509 0.351,-0.74 6.817,-15.367 -0.419,-37.105 -9.808,-46.079 0,0 28.203,15.985 27.108,40.841 3.861,-6.528 5.985,-14.44 5.985,-23.283 C 40.101,17.365 23.603,0 0,0 m 0,109.621 c -41.515,0 -69.878,-27.685 -69.878,-67.593 0,-40.063 28.363,-67.56 69.878,-67.56 41.321,0 69.875,27.497 69.875,67.56 0,39.908 -28.554,67.593 -69.875,67.593" /></g><g
           transform="translate(108.9478,75.7881)"
           id="g152"><path
             id="path154"
             style="fill:#00d27d;fill-opacity:1;fill-rule:nonzero;stroke:none"
             d="m 0,0 v -13.335 h 10.691 c 5.24,0 9.004,2.864 9.004,6.716 C 19.695,-2.752 15.931,0 10.691,0 Z M 0,16.156 V 3.921 h 10.852 c 4.556,0 7.782,2.493 7.782,6.091 0,3.544 -3.226,6.144 -7.782,6.144 z m -4.399,-33.407 v 37.313 h 15.784 c 6.717,0 11.644,-4.233 11.644,-10.05 0,-3.814 -2.488,-7.093 -5.988,-7.997 4.135,-0.953 7.044,-4.596 7.044,-8.839 0,-6.032 -5.401,-10.427 -12.813,-10.427 z" /></g><g
           transform="translate(140.4238,69.2861)"
           id="g156"><path
             id="path158"
             style="fill:#00d27d;fill-opacity:1;fill-rule:nonzero;stroke:none"
             d="M 0,0 V 15.98 H 4.024 V 0 c 0,-4.712 2.708,-8.158 7.469,-8.158 4.653,0 8.677,3.602 8.677,8.471 V 15.98 h 4.023 V -10.749 H 20.17 v 3.76 C 18.375,-9.947 14.714,-11.81 11.019,-11.81 4.185,-11.81 0,-6.833 0,0" /></g><path
           id="path160"
           style="fill:#00d27d;fill-opacity:1;fill-rule:nonzero;stroke:none"
           d="m 173.602,85.267 h 4.023 V 58.538 h -4.023 z m 2.004,10.382 c 1.589,0 2.767,-1.108 2.767,-2.697 0,-1.595 -1.178,-2.753 -2.767,-2.753 -1.627,0 -2.742,1.158 -2.742,2.753 0,1.589 1.115,2.697 2.742,2.697" /><path
           id="path162"
           style="fill:#00d27d;fill-opacity:1;fill-rule:nonzero;stroke:none"
           d="m 186.566,97.449 h 4.082 V 58.537 h -4.082 z" /><g
           transform="translate(211.707,61.3916)"
           id="g164"><path
             id="path166"
             style="fill:#00d27d;fill-opacity:1;fill-rule:nonzero;stroke:none"
             d="m 0,0 c 5.93,0 10.217,4.453 10.217,10.486 0,6.081 -4.287,10.53 -10.217,10.53 -5.925,0 -10.216,-4.449 -10.216,-10.53 C -10.216,4.347 -5.875,0 0,0 m 10.114,36.058 h 4.023 V -2.854 h -3.92 v 4.599 c -2.273,-3.495 -6.091,-5.66 -10.642,-5.66 -7.983,0 -13.815,6.091 -13.815,14.401 0,8.359 5.832,14.45 13.815,14.45 4.502,0 8.266,-2.112 10.539,-5.558 z" /></g><path
           id="path168"
           style="fill:#00d27d;fill-opacity:1;fill-rule:nonzero;stroke:none"
           d="m 234.824,85.267 h 4.014 V 58.538 h -4.014 z m 2.014,10.382 c 1.579,0 2.753,-1.108 2.753,-2.697 0,-1.595 -1.174,-2.753 -2.753,-2.753 -1.642,0 -2.762,1.158 -2.762,2.753 0,1.589 1.12,2.697 2.762,2.697" /><g
           transform="translate(272.0352,74.5273)"
           id="g170"><path
             id="path172"
             style="fill:#00d27d;fill-opacity:1;fill-rule:nonzero;stroke:none"
             d="M 0,0 V -15.99 H -4.023 V 0 c 0,4.707 -2.699,8.095 -7.406,8.095 -4.669,0 -8.741,-3.544 -8.741,-8.477 V -15.99 h -4.027 v 26.729 h 4.027 V 6.98 c 1.858,2.973 5.451,4.82 9.166,4.82 C -4.185,11.8 0,6.824 0,0" /></g><g
           transform="translate(302.8271,71.8779)"
           id="g174"><path
             id="path176"
             style="fill:#00d27d;fill-opacity:1;fill-rule:nonzero;stroke:none"
             d="m 0,0 c 0,6.247 -4.287,10.744 -10.217,10.744 -5.929,0 -10.221,-4.497 -10.221,-10.744 0,-6.033 4.35,-10.433 10.221,-10.433 C -4.287,-10.433 0,-6.033 0,0 m -19.324,-16.366 c 1.173,-3.867 4.977,-6.561 9.376,-6.561 5.715,0 9.845,3.696 9.845,10.011 v 4.225 c -2.331,-3.378 -6.037,-5.388 -10.529,-5.388 -7.998,0 -13.825,5.93 -13.825,14.079 0,8.311 5.827,14.342 13.825,14.342 4.605,0 8.246,-2.063 10.529,-5.402 v 4.449 H 3.92 v -26.305 c 0,-8.584 -5.777,-13.667 -13.711,-13.667 -6.458,0 -11.909,3.812 -13.39,9.268 z" /></g><g
           transform="translate(342.3501,58.5371)"
           id="g178"><path
             id="path180"
             style="fill:#00d27d;fill-opacity:1;fill-rule:nonzero;stroke:none"
             d="m 0,0 -13.609,37.328 h 4.658 L 3.29,3.329 15.452,37.328 h 4.669 L 6.565,0 Z" /></g><g
           transform="translate(388.4971,71.8779)"
           id="g182"><path
             id="path184"
             style="fill:#00d27d;fill-opacity:1;fill-rule:nonzero;stroke:none"
             d="m 0,0 c 0,6.247 -4.341,10.744 -10.217,10.744 -5.925,0 -10.212,-4.497 -10.212,-10.744 0,-6.199 4.287,-10.75 10.212,-10.75 C -4.341,-10.75 0,-6.199 0,0 m 0.059,13.389 h 4.018 v -26.73 H 0.059 v 4.708 c -2.284,-3.545 -6.141,-5.768 -10.75,-5.768 -7.993,0 -13.766,6.095 -13.766,14.401 0,8.358 5.773,14.449 13.766,14.449 4.609,0 8.466,-2.223 10.75,-5.816 z" /></g><path
           id="path186"
           style="fill:#00d27d;fill-opacity:1;fill-rule:nonzero;stroke:none"
           d="m 400.869,97.449 h 4.083 V 58.537 h -4.083 z" /><g
           transform="translate(412.7236,69.2861)"
           id="g188"><path
             id="path190"
             style="fill:#00d27d;fill-opacity:1;fill-rule:nonzero;stroke:none"
             d="M 0,0 V 15.98 H 4.014 V 0 c 0,-4.712 2.703,-8.158 7.469,-8.158 4.649,0 8.682,3.602 8.682,8.471 V 15.98 h 4.019 v -26.729 h -4.019 v 3.76 C 18.371,-9.947 14.715,-11.81 11.014,-11.81 4.175,-11.81 0,-6.833 0,0" /></g><g
           transform="translate(467.7627,74.0479)"
           id="g192"><path
             id="path194"
             style="fill:#00d27d;fill-opacity:1;fill-rule:nonzero;stroke:none"
             d="m 0,0 c -0.743,5.079 -4.658,8.574 -9.948,8.574 -5.197,0 -9.058,-3.495 -9.801,-8.525 z m -0.631,-7.572 3.598,-1.324 c -1.696,-4.449 -6.986,-7.675 -12.553,-7.675 -8.364,0 -14.396,6.188 -14.396,14.714 0,8.154 5.92,14.136 14.191,14.136 8.144,0 14.024,-5.982 14.024,-14.185 0,-0.48 0,-1.017 -0.053,-1.589 l -24.041,0.054 c 0.639,-5.612 4.716,-9.479 10.015,-9.479 4.024,0 7.885,2.332 9.215,5.348" /></g><g
           transform="translate(496.0029,58.5371)"
           id="g196"><path
             id="path198"
             style="fill:#00d27d;fill-opacity:1;fill-rule:nonzero;stroke:none"
             d="M 0,0 V 37.328 H 5.983 L 25.103,5.396 v 31.932 h 4.433 V 0 H 23.567 L 4.39,31.926 V 0 Z" /></g><g
           transform="translate(557.1963,74.0479)"
           id="g200"><path
             id="path202"
             style="fill:#00d27d;fill-opacity:1;fill-rule:nonzero;stroke:none"
             d="m 0,0 c -0.753,5.079 -4.669,8.574 -9.968,8.574 -5.191,0 -9.048,-3.495 -9.786,-8.525 z m -0.646,-7.572 3.599,-1.324 c -1.686,-4.449 -6.991,-7.675 -12.544,-7.675 -8.364,0 -14.396,6.188 -14.396,14.714 0,8.154 5.929,14.136 14.185,14.136 8.15,0 14.026,-5.982 14.026,-14.185 0,-0.48 0,-1.017 -0.054,-1.589 l -24.041,0.054 c 0.64,-5.612 4.712,-9.479 10.016,-9.479 4.023,0 7.89,2.332 9.209,5.348" /></g><g
           transform="translate(570.5615,81.9385)"
           id="g204"><path
             id="path206"
             style="fill:#00d27d;fill-opacity:1;fill-rule:nonzero;stroke:none"
             d="M 0,0 H -4.39 V 3.328 H 0.156 L 0.743,9.586 H 4.027 V 3.328 h 6.938 V 0 H 4.027 v -16.621 c 0,-2.601 1.589,-4.351 4.126,-4.4 0.846,0 2.23,0.21 3.232,0.528 v -3.334 c -1.223,-0.371 -2.918,-0.635 -4.234,-0.635 -4.394,0 -7.151,3.069 -7.151,7.685 z" /></g><g
           transform="translate(607.875,80.5596)"
           id="g208"><path
             id="path210"
             style="fill:#00d27d;fill-opacity:1;fill-rule:nonzero;stroke:none"
             d="m 0,0 -6.409,-22.022 h -5.499 l -9.059,26.734 h 4.238 l 7.622,-22.766 6.726,22.766 H 2.331 L 9.272,-18.054 16.786,4.712 H 21.02 L 11.912,-22.022 H 6.403 Z" /></g><g
           transform="translate(648.0332,82.6221)"
           id="g212"><path
             id="path214"
             style="fill:#00d27d;fill-opacity:1;fill-rule:nonzero;stroke:none"
             d="m 0,0 c -5.925,0 -10.217,-4.507 -10.217,-10.744 0,-6.199 4.292,-10.75 10.217,-10.75 5.93,0 10.217,4.551 10.217,10.75 C 10.217,-4.507 5.93,0 0,0 m 0,-25.146 c -8.359,0 -14.24,5.984 -14.24,14.402 0,8.467 5.881,14.449 14.24,14.449 8.369,0 14.294,-5.982 14.294,-14.449 0,-8.418 -5.925,-14.402 -14.294,-14.402" /></g><g
           transform="translate(684.0752,85.4824)"
           id="g216"><path
             id="path218"
             style="fill:#00d27d;fill-opacity:1;fill-rule:nonzero;stroke:none"
             d="m 0,0 v -3.711 c -1.379,0.636 -2.918,0.851 -3.979,0.851 -4.175,0 -6.932,-3.764 -6.932,-9.103 v -14.982 h -4.024 v 26.734 h 3.916 v -3.705 c 1.584,2.914 4.131,4.653 7.412,4.653 C -2.498,0.737 -1.222,0.474 0,0" /></g><g
           transform="translate(694.0137,58.5371)"
           id="g220"><path
             id="path222"
             style="fill:#00d27d;fill-opacity:1;fill-rule:nonzero;stroke:none"
             d="M 0,0 H -4.019 V 38.912 H 0 V 15.932 L 11.644,26.729 H 17.1 L 3.71,14.294 17.628,0 H 12.177 L 0,12.646 Z" /></g><g
           transform="translate(714.3789,67.4775)"
           id="g224"><path
             id="path226"
             style="fill:#00d27d;fill-opacity:1;fill-rule:nonzero;stroke:none"
             d="m 0,0 h 3.92 c 0,-3.705 3.334,-6.35 7.895,-6.35 4.125,0 7.093,2.009 7.093,4.717 -0.054,6.722 -18.381,1.79 -18.381,12.378 0,4.663 4.503,8.105 10.272,8.105 6.569,0 11.443,-3.803 11.443,-9.043 l -3.97,0.048 c 0,3.07 -3.187,5.29 -7.572,5.29 -3.446,0 -6.252,-1.907 -6.252,-4.507 0,-6.561 18.381,-2.16 18.381,-12.006 0,-4.928 -4.615,-8.633 -11.014,-8.633 C 4.918,-10.001 -0.054,-5.768 0,0" /></g></g></g></g></svg>