<svg version="1.1" id="Layer_1" xmlns="http://www.w3.org/2000/svg" x="0" y="0" viewBox="0 0 600 600" style="enable-background:new 0 0 600 600" xml:space="preserve"><style></style><path d="M299.99 133.45c-98.69 0-166.13 65.83-166.13 160.7 0 95.25 67.44 160.63 166.13 160.63 98.25 0 166.14-65.37 166.14-160.63 0-94.87-67.89-160.7-166.14-160.7m0 260.63c-56.12-.39-95.32-41.28-95.32-99.93 0-18.41 3.9-35.16 10.93-49.39 0 0 0-.07.08-.14.06-.16.21-.54.53-.99.07-.31.23-.63.47-.93.29-.6.75-1.44 1.29-2.37.3-.45.54-.91.83-1.44.45-.68.91-1.44 1.46-2.22 7.89-11.76 26-32.96 57.95-38.37l1.61-.23c.38 0 .92-.08 1.46-.17 10.01-.74 41.34-1.3 55.58 22.25.16.32.29.54.45.85.7 1.15 1.3 2.36 1.84 3.59.31.61.54 1.21.85 1.77 16.2 36.54-1 88.21-23.34 109.56 0 0 67.07-38.01 64.46-97.11 9.18 15.52 14.23 34.34 14.23 55.35-.01 58.63-39.24 99.92-95.36 99.92" style="fill:#00d27d"/></svg>