<?xml version="1.0" encoding="utf-8"?>
<!-- Generator: Adobe Illustrator 25.2.1, SVG Export Plug-In . SVG Version: 6.00 Build 0)  -->
<svg version="1.1" id="Layer_1" xmlns="http://www.w3.org/2000/svg" xmlns:xlink="http://www.w3.org/1999/xlink" x="0px" y="0px"
	 viewBox="0 0 600 600" style="enable-background:new 0 0 600 600;" xml:space="preserve">
<style type="text/css">
	.st0{fill:#FFFFFF;}
	.st1{fill:#00D27D;}
</style>
<path class="st1" d="M299.99,133.45c-98.69,0-166.13,65.83-166.13,160.7c0,95.25,67.44,160.63,166.13,160.63
	c98.25,0,166.14-65.37,166.14-160.63C466.13,199.28,398.24,133.45,299.99,133.45 M299.99,394.08
	c-56.12-0.39-95.32-41.28-95.32-99.93c0-18.41,3.9-35.16,10.93-49.39c0,0,0-0.07,0.08-0.14c0.06-0.16,0.21-0.54,0.53-0.99
	c0.07-0.31,0.23-0.63,0.47-0.93c0.29-0.6,0.75-1.44,1.29-2.37c0.3-0.45,0.54-0.91,0.83-1.44c0.45-0.68,0.91-1.44,1.46-2.22
	c7.89-11.76,26-32.96,57.95-38.37l1.61-0.23c0.38,0,0.92-0.08,1.46-0.17c10.01-0.74,41.34-1.3,55.58,22.25
	c0.16,0.32,0.29,0.54,0.45,0.85c0.7,1.15,1.3,2.36,1.84,3.59c0.31,0.61,0.54,1.21,0.85,1.77c16.2,36.54-1,88.21-23.34,109.56
	c0,0,67.07-38.01,64.46-97.11c9.18,15.52,14.23,34.34,14.23,55.35C395.34,352.79,356.11,394.08,299.99,394.08"/>
</svg>
