<svg width="375" height="378" viewBox="0 0 375 378" fill="none" xmlns="http://www.w3.org/2000/svg">
<path d="M374.773 0V376.032H293.781V179.59H227.127C219.329 179.59 211.784 182.608 205.999 187.639C202.729 190.657 200.213 194.178 198.453 198.203C196.692 202.227 195.686 206.503 195.686 211.031V256.305C195.686 268.379 185.876 278.44 173.552 278.44H119.977C107.903 278.44 97.8422 268.63 97.8422 256.305V201.724C97.8422 189.651 107.652 179.59 119.977 179.59H168.27C174.809 179.59 181.097 177.326 185.876 173.05C188.895 170.535 191.41 167.265 193.171 163.492C194.931 159.971 195.686 155.946 195.686 151.922V80.9915H0.25V0H374.773Z" fill="#4B5CF0"/>
<path d="M97.8437 327.488V328.242C97.8437 355.407 75.9609 377.29 48.7961 377.29C21.8828 377.29 0 355.407 0 328.242V327.488C0 300.323 21.8828 278.44 49.0476 278.44C62.6301 278.44 74.7033 283.974 83.7583 292.777C92.5617 301.832 97.8437 313.905 97.8437 327.488Z" fill="#4B5CF0"/>
</svg>
